<?xml version="1.0" encoding="utf-8"?>
<!-- Generator: Adobe Illustrator 16.0.0, SVG Export Plug-In . SVG Version: 6.00 Build 0)  -->
<!DOCTYPE svg PUBLIC "-//W3C//DTD SVG 1.1//EN" "http://www.w3.org/Graphics/SVG/1.1/DTD/svg11.dtd">
<svg version="1.1" xmlns="http://www.w3.org/2000/svg" xmlns:xlink="http://www.w3.org/1999/xlink" x="0px" y="0px" width="500px"
	 height="500px" viewBox="0 0 500 500" enable-background="new 0 0 500 500" xml:space="preserve">
<g id="BACKGROUND">
</g>
<g id="OBJECTS">
	<g>
		
			<line fill="none" stroke="#060305" stroke-width="1.5" stroke-linecap="round" stroke-linejoin="round" stroke-miterlimit="10" x1="355.941" y1="425.228" x2="137.804" y2="425.228"/>
		
			<line fill="none" stroke="#060305" stroke-width="1.5" stroke-linecap="round" stroke-linejoin="round" stroke-miterlimit="10" x1="127.106" y1="425.228" x2="110.548" y2="425.228"/>
	</g>
	<g>
		
			<path fill="none" stroke="#060305" stroke-width="1.5" stroke-linecap="round" stroke-linejoin="round" stroke-miterlimit="10" d="
			M373.313,322.13c-7.862-7.862-14.967,6.443,0,12.676C388.278,328.573,381.174,314.268,373.313,322.13z"/>
		<path fill="#060305" d="M340.434,90.728c-7.863-7.862-14.967,6.443,0,12.676C355.399,97.171,348.295,82.865,340.434,90.728z"/>
		<circle fill="#060305" cx="171.065" cy="165.681" r="1.965"/>
		<circle fill="#060305" cx="325.436" cy="153.118" r="1.965"/>
		
			<circle fill="none" stroke="#060305" stroke-width="1.5" stroke-linecap="round" stroke-linejoin="round" stroke-miterlimit="10" cx="388.864" cy="256.177" r="1.966"/>
		<circle fill="#060305" cx="380.105" cy="126.839" r="1.966"/>
		
			<circle fill="none" stroke="#060305" stroke-width="1.5" stroke-linecap="round" stroke-linejoin="round" stroke-miterlimit="10" cx="139.77" cy="128.805" r="1.966"/>
		<circle fill="#060305" cx="423.707" cy="284.882" r="1.965"/>
		<circle fill="#060305" cx="64.071" cy="291" r="1.966"/>
		<polygon fill="#060305" points="123.767,195.706 118.827,204.262 128.707,204.262 		"/>
		<polygon fill="#060305" points="97.588,328.428 102.528,319.872 92.648,319.872 		"/>
	</g>
	<g>
		<path fill="#060305" d="M435.064,151.23c-12.41-6.477-27.967-6.158-40.098,0.828c-25.017,14.406-53.908,21.792-82.775,21.524
			c-8.51-22.573-17.172-45.111-25.683-67.684c3.188-2.095,5.268-5.882,5.056-9.69c-0.212-3.809-2.842-7.441-6.48-8.588
			c-3.638-1.147-8.022,0.451-9.859,3.795c-8.354-2.345-16.398-4.987-24.754-7.332c0.425-3.127-1.754-7.733-4.614-9.068
			s-6.408-0.849-8.983,0.975c-2.576,1.823-4.182,4.852-4.556,7.985c-6.082,0.67-11.705,3.685-14.964,8.864
			c-0.134,0.061-2.801,1.247-6.042,2.688c-11.22,4.99-16.525,18.088-11.653,29.36c0.034,0.08,0.069,0.159,0.104,0.239
			c3.5,7.961,9.27,14.67,14.957,21.249l-10.309,49.583c-15.046,9.081-30.1,17.11-45.146,26.191
			c-9.207,5.557-18.724,9.07-29.146,11.718s-21.111,4.728-30.792,9.41c-9.681,4.682-18.465,12.478-21.466,22.804
			c-1.292,4.447,2.521,8.801,6.615,10.965s9.385,1.844,13.189-0.797c22.8,3.595,49.446,3.73,72.334,0.75c0,0-16,31-16.191,31.303
			l-32.093,42.244c-4.468,5.881-4.127,14.107,0.813,19.598l43.915,48.815c4.523,5.028,12.984,2.675,14.047-4.003
			c0.007-0.046,0.015-0.093,0.021-0.139c0.723-4.832-1.155-9.664-3.399-14.003l45.239-41.101l35.843-3.674l-9.508,51.706
			c-1.672,9.096,5.312,17.482,14.561,17.482h62.258c6.061,0,9.813-6.854,6.309-11.799c-0.022-0.032-0.045-0.064-0.068-0.096
			c-2.316-3.178-6.125-5.218-10.054-5.386c7.303-14.937,14.084-29.971,21.387-44.908c12.405-25.372,10.952-106.07,10.689-117.953
			c31.404-15.236,58.772-41.525,72.754-73.193c4.745-0.064,9.313-3.148,11.147-7.524S439.271,153.425,435.064,151.23z"/>
		
			<path fill="none" stroke="#FFFFFF" stroke-width="1.5" stroke-linecap="round" stroke-linejoin="round" stroke-miterlimit="10" d="
			M351.394,231.058c0.896,5.89,1.791,11.779,2.687,17.668"/>
		
			<path fill="none" stroke="#FFFFFF" stroke-width="1.5" stroke-linecap="round" stroke-linejoin="round" stroke-miterlimit="10" d="
			M168.571,278.347c5.762-0.845,11.523-1.69,17.285-2.535"/>
		
			<path fill="none" stroke="#FFFFFF" stroke-width="1.5" stroke-linecap="round" stroke-linejoin="round" stroke-miterlimit="10" d="
			M257.449,356.635c8.943-1.511,17.889-3.021,26.832-4.532"/>
		
			<path fill="none" stroke="#FFFFFF" stroke-width="1.5" stroke-linecap="round" stroke-linejoin="round" stroke-miterlimit="10" d="
			M204.154,102.949c6.723-2.934,15.372-0.41,19.463,5.678"/>
		
			<path fill="none" stroke="#FFFFFF" stroke-width="1.5" stroke-linecap="round" stroke-linejoin="round" stroke-miterlimit="10" d="
			M212.809,103.403c-1.667,5.348-2.564,10.936-2.655,16.538"/>
		
			<line fill="none" stroke="#FFFFFF" stroke-width="1.5" stroke-linecap="round" stroke-linejoin="round" stroke-miterlimit="10" x1="232.446" y1="83.211" x2="250.517" y2="83.211"/>
		
			<path fill="none" stroke="#FFFFFF" stroke-width="1.5" stroke-linecap="round" stroke-linejoin="round" stroke-miterlimit="10" d="
			M203.941,195.706c2.196-1.333,4.392-2.667,6.588-4"/>
		
			<path fill="none" stroke="#FFFFFF" stroke-width="1.5" stroke-linecap="round" stroke-linejoin="round" stroke-miterlimit="10" d="
			M97.588,276.412c1.569-1.098,3.138-2.196,4.706-3.294"/>
		
			<path fill="none" stroke="#FFFFFF" stroke-width="1.5" stroke-linecap="round" stroke-linejoin="round" stroke-miterlimit="10" d="
			M419.465,173.315c2.828-0.442,5.656-0.884,8.484-1.326"/>
	</g>
</g>
</svg>
